# xmcd
#
# Track frame offsets:
#	150
#	15005
#	34560
#	49997
#	77661
#	93493
#	107488
#	124049
#	142645
#	150303
#	163323
#	200763
#	211282
#
# Disc length: 3188 seconds
#
# Revision: 0
# Processed by: cddbd v1.5.2PL0 Copyright (c) Steve Scherf et al.
# Submitted via: audiograbber 1.83.01
#
DISCID=990c720d
DTITLE=Young, Neil - Heart of Gold Live 10CD04
DYEAR=1984
DGENRE=POP-ROCK-JAZZ
TTITLE0=Are you ready for the country
TTITLE1=Hawks and doves
TTITLE2=Comes a time
TTITLE3=Bound for glory
TTITLE4=Let your fingers do the walking
TTITLE5=Are there any more real cowboys
TTITLE6=Heart of gold
TTITLE7=Amber Jean
TTITLE8=Band Intro
TTITLE9=Roll another number (for the road)
TTITLE10=Southern Pacific
TTITLE11=The needle and the damage done
TTITLE12=Helpless
EXTD=
EXTT0=
EXTT1=
EXTT2=
EXTT3=
EXTT4=
EXTT5=
EXTT6=
EXTT7=
EXTT8=
EXTT9=
EXTT10=
EXTT11=
EXTT12=
PLAYORDER=
